<svg id="Glyph" xmlns="http://www.w3.org/2000/svg" viewBox="0 0 64 64"><title>Back to School</title><path d="M13.20111,23.74c21.76-4.12,29.52-8.71,29.61-8.76a.99378.99378,0,0,1,1.3.23c1.08,1.36,3.42,2.35,6.75,2.9.69.12,1.42.21,2.2.29-2.5-8.3-10.75-14.4-20.53-14.4-11.76,0-21.33,8.83-21.33,19.69C10.98788,24.5626,12.69658,23.6895,13.20111,23.74Z"/><path d="M43.74109,40.42a20.8071,20.8071,0,0,1-3.7,1.68v4.07a.99105.99105,0,0,1-.57995.9l-6.51,3.05a1.04893,1.04893,0,0,1-.85,0l-6.5-3.05a.97467.97467,0,0,1-.58-.9V42.1a20.58464,20.58464,0,0,1-4.16-1.95C13.26038,43.40954,9.52569,50.80988,10.14129,59a1.00268,1.00268,0,0,0,.99982,1h41.72a1.003,1.003,0,0,0,1-1C54.4404,51.00521,51.03023,43.84441,43.74109,40.42Z"/><path d="M27.02111,42.7v2.83l5.51,2.58,5.50995-2.58V42.7A23.06856,23.06856,0,0,1,27.02111,42.7Z"/><path d="M40.04107,39.98c7.99214-2.97315,13.34871-11.36811,11.4399-19.75006C48.3211,19.79,45.05108,18.89,43.1311,17.08c-2.39,1.25-10.89,5.11-29.79,8.68005C14.804,37.87,29.15176,44.45549,40.04107,39.98ZM27.53112,27.14a1.00015,1.00015,0,0,1-2-.00005V25.78a1.00016,1.00016,0,0,1,2,.00006Zm5,11.65a3.90292,3.90292,0,0,1-3.9-3.89,1.0002,1.0002,0,0,1,2,.00007,1.89526,1.89526,0,0,0,3.79-.00015,1.00011,1.00011,0,0,1,2,.00013A3.89431,3.89431,0,0,1,32.53112,38.79Zm5-11.65V25.78a1.00016,1.00016,0,0,1,2,.00006v1.36A1.00016,1.00016,0,0,1,37.53112,27.14Z"/></svg>