<svg xmlns="http://www.w3.org/2000/svg" class="ionicon s-ion-icon" viewBox="0 0 512 512" fill="#4B5563">
    <title>Logo Rss</title>
    <path d="m20.76 14.07-.66-1.34-2.88 1.42-3.72-2.15 3.72-2.15 2.88 1.42.66-1.34-1.97-.98 2.25-1.3-.75-1.3-2.25 1.3.14-2.2-1.5-.1-.21 3.2-3.72 2.15v-4.3l2.67-1.78-.84-1.24-1.83 1.22v-2.6h-1.5v2.6l-1.83-1.22-.84 1.24 2.67 1.78v4.3l-3.72-2.15-.21-3.2-1.5.1.14 2.2-2.25-1.3-.75 1.3 2.25 1.3-1.97.98.66 1.34 2.88-1.42 3.72 2.15-3.72 2.15-2.88-1.42-.66 1.34 1.97.98-2.25 1.3.75 1.3 2.25-1.3-.14 2.2 1.5.1.21-3.2 3.72-2.15v4.3l-2.67 1.78.84 1.24 1.83-1.22v2.6h1.5v-2.6l1.83 1.22.84-1.24-2.67-1.78v-4.3l3.72 2.15.21 3.2 1.5-.1-.14-2.2 2.25 1.3.75-1.3-2.25-1.3z"/></svg>